<svg width="13" height="13" viewBox="0 0 13 13" fill="none" xmlns="http://www.w3.org/2000/svg">
<path d="M0.650391 6.15039C0.650391 6.87266 0.792652 7.58786 1.06905 8.25515C1.34545 8.92244 1.75058 9.52876 2.2613 10.0395C2.77203 10.5502 3.37834 10.9553 4.04563 11.2317C4.71292 11.5081 5.42812 11.6504 6.15039 11.6504C6.87266 11.6504 7.58786 11.5081 8.25515 11.2317C8.92244 10.9553 9.52876 10.5502 10.0395 10.0395C10.5502 9.52876 10.9553 8.92244 11.2317 8.25515C11.5081 7.58786 11.6504 6.87266 11.6504 6.15039C11.6504 4.6917 11.0709 3.29275 10.0395 2.2613C9.00803 1.22985 7.60908 0.650391 6.15039 0.650391C4.6917 0.650391 3.29275 1.22985 2.2613 2.2613C1.22985 3.29275 0.650391 4.6917 0.650391 6.15039Z" stroke="#868180" stroke-width="1.3" stroke-linecap="round" stroke-linejoin="round"/>
<path d="M6.15039 3.09473V6.15028L7.98372 7.98362" stroke="#868180" stroke-width="1.3" stroke-linecap="round" stroke-linejoin="round"/>
</svg>
