<svg width="12" height="13" viewBox="0 0 12 13" fill="none" xmlns="http://www.w3.org/2000/svg">
<path d="M1.33333 13C0.966667 13 0.652889 12.8728 0.392 12.6184C0.131111 12.3641 0.000444444 12.0579 0 11.7V2.6C0 2.2425 0.130667 1.93657 0.392 1.6822C0.653333 1.42783 0.967111 1.30044 1.33333 1.3H2V0.650002C2 0.465835 2.064 0.311569 2.192 0.187202C2.32 0.0628356 2.47822 0.000435575 2.66667 2.24138e-06C2.85511 -0.000431092 3.01355 0.061969 3.142 0.187202C3.27044 0.312436 3.33422 0.466702 3.33333 0.650002V1.3H8.66667V0.650002C8.66667 0.465835 8.73067 0.311569 8.85867 0.187202C8.98667 0.0628356 9.14489 0.000435575 9.33333 2.24138e-06C9.52178 -0.000431092 9.68022 0.061969 9.80866 0.187202C9.93711 0.312436 10.0009 0.466702 10 0.650002V1.3H10.6667C11.0333 1.3 11.3473 1.4274 11.6087 1.6822C11.87 1.937 12.0004 2.24293 12 2.6V11.7C12 12.0575 11.8696 12.3636 11.6087 12.6184C11.3478 12.8732 11.0338 13.0004 10.6667 13H1.33333ZM1.33333 11.7H10.6667V5.2H1.33333V11.7Z" fill="#868180"/>
</svg>
