<svg width="11" height="17" viewBox="0 0 11 17" fill="none" xmlns="http://www.w3.org/2000/svg">
<path d="M11 5.49589C11.0018 4.45428 10.7063 3.4337 10.1481 2.55344C9.58986 1.67317 8.792 0.969608 7.84776 0.524984C6.90351 0.08036 5.8519 -0.0869493 4.81586 0.0426144C3.77982 0.172178 2.80215 0.593261 1.99715 1.25664C1.19215 1.92002 0.593078 2.79828 0.269965 3.78876C-0.0531484 4.77923 -0.0869512 5.841 0.172509 6.84993C0.431968 7.85887 0.973969 8.77328 1.73515 9.48627C2.49633 10.1993 3.44525 10.6814 4.47096 10.8763C4.51045 10.8868 4.54552 10.9097 4.57106 10.9415C4.5966 10.9734 4.61126 11.0125 4.6129 11.0533V12.9293C4.6129 12.9763 4.5942 13.0213 4.56093 13.0545C4.52766 13.0877 4.48253 13.1063 4.43548 13.1063H3.37096C3.13569 13.1063 2.91005 13.1995 2.74369 13.3655C2.57732 13.5314 2.48386 13.7565 2.48386 13.9912C2.48386 14.2259 2.57732 14.451 2.74369 14.617C2.91005 14.7829 3.13569 14.8762 3.37096 14.8762H4.43548C4.48253 14.8762 4.52766 14.8948 4.56093 14.928C4.5942 14.9612 4.6129 15.0062 4.6129 15.0532V16.1151C4.6129 16.3498 4.70636 16.5749 4.87272 16.7408C5.03908 16.9068 5.26472 17 5.49999 17C5.73526 17 5.9609 16.9068 6.12726 16.7408C6.29363 16.5749 6.38709 16.3498 6.38709 16.1151V15.0532C6.38709 15.0062 6.40578 14.9612 6.43905 14.928C6.47233 14.8948 6.51745 14.8762 6.56451 14.8762H7.62902C7.8643 14.8762 8.08993 14.7829 8.2563 14.617C8.42266 14.451 8.51612 14.2259 8.51612 13.9912C8.51612 13.7565 8.42266 13.5314 8.2563 13.3655C8.08993 13.1995 7.8643 13.1063 7.62902 13.1063H6.56451C6.51745 13.1063 6.47233 13.0877 6.43905 13.0545C6.40578 13.0213 6.38709 12.9763 6.38709 12.9293V11.0533C6.38873 11.0125 6.40339 10.9734 6.42892 10.9415C6.45446 10.9097 6.48954 10.8868 6.52902 10.8763C7.78499 10.6376 8.91838 9.96998 9.73434 8.98805C10.5503 8.00613 10.9978 6.77131 11 5.49589ZM1.77419 5.49589C1.77419 4.76079 1.9927 4.0422 2.4021 3.43099C2.81149 2.81978 3.39339 2.3434 4.07419 2.06209C4.75499 1.78078 5.50413 1.70718 6.22686 1.85059C6.9496 1.994 7.61347 2.34798 8.13454 2.86777C8.6556 3.38756 9.01045 4.04982 9.15421 4.77079C9.29797 5.49176 9.22419 6.23907 8.94219 6.91821C8.66019 7.59735 8.18264 8.17782 7.56994 8.58622C6.95723 8.99462 6.23689 9.2126 5.49999 9.2126C4.51242 9.21073 3.56584 8.81855 2.86752 8.12193C2.1692 7.42532 1.77606 6.48104 1.77419 5.49589Z" fill="white"/>
</svg>
