<svg width="12" height="14" viewBox="0 0 12 14" fill="none" xmlns="http://www.w3.org/2000/svg">
<path d="M5.7002 7.5752C6.73573 7.5752 7.5752 6.73573 7.5752 5.7002C7.5752 4.66466 6.73573 3.8252 5.7002 3.8252C4.66466 3.8252 3.8252 4.66466 3.8252 5.7002C3.8252 6.73573 4.66466 7.5752 5.7002 7.5752Z" stroke="#868180" stroke-width="1.4" stroke-linecap="round" stroke-linejoin="round"/>
<path d="M5.7002 0.700195C4.37411 0.700195 3.10234 1.22698 2.16466 2.16466C1.22698 3.10234 0.700195 4.37411 0.700195 5.7002C0.700195 6.8827 0.951445 7.65645 1.6377 8.5127L5.7002 13.2002L9.7627 8.5127C10.4489 7.65645 10.7002 6.8827 10.7002 5.7002C10.7002 4.37411 10.1734 3.10234 9.23573 2.16466C8.29805 1.22698 7.02628 0.700195 5.7002 0.700195Z" stroke="#868180" stroke-width="1.4" stroke-linecap="round" stroke-linejoin="round"/>
</svg>
