<svg width="16" height="16" viewBox="0 0 16 16" fill="none" xmlns="http://www.w3.org/2000/svg">
<path d="M1.16823 0.799805H14.4314M3.74717 14.7998C5.37559 14.7998 6.69454 13.4809 6.69454 11.8524C6.69454 10.224 5.37559 8.90507 3.74717 8.90507C2.11875 8.90507 0.799805 10.224 0.799805 11.8524C0.799805 13.4809 2.11875 14.7998 3.74717 14.7998ZM11.8524 14.7998C13.4809 14.7998 14.7998 13.4809 14.7998 11.8524C14.7998 10.224 13.4809 8.90507 11.8524 8.90507C10.224 8.90507 8.90507 10.224 8.90507 11.8524C8.90507 13.4809 10.224 14.7998 11.8524 14.7998Z" stroke="white" stroke-width="1.6" stroke-miterlimit="2" stroke-linecap="round" stroke-linejoin="round"/>
<path d="M3.74805 8.90507V0.799805M11.8533 8.90507V0.799805" stroke="white" stroke-width="1.6" stroke-miterlimit="2" stroke-linecap="square" stroke-linejoin="round"/>
<path d="M2.27344 5.95703H5.22081M10.3787 5.95703H13.3261" stroke="white" stroke-width="1.6" stroke-miterlimit="2" stroke-linecap="round" stroke-linejoin="round"/>
</svg>
