<svg width="12" height="9" viewBox="0 0 12 9" fill="none" xmlns="http://www.w3.org/2000/svg">
<path d="M1.2 9C0.87 9 0.5876 8.88994 0.3528 8.66981C0.118 8.44969 0.0004 8.18475 0 7.875V1.125C0 0.815625 0.1176 0.550875 0.3528 0.33075C0.588 0.110625 0.8704 0.000375 1.2 0H10.8C11.13 0 11.4126 0.11025 11.6478 0.33075C11.883 0.55125 12.0004 0.816 12 1.125V7.875C12 8.18437 11.8826 8.44931 11.6478 8.66981C11.413 8.89031 11.1304 9.00037 10.8 9H1.2ZM10.8 2.25L6.315 4.87969C6.265 4.90781 6.2126 4.929 6.1578 4.94325C6.103 4.9575 6.0504 4.96444 6 4.96406C5.9496 4.96369 5.8972 4.95675 5.8428 4.94325C5.7884 4.92975 5.7358 4.90856 5.685 4.87969L1.2 2.25V7.875H10.8V2.25ZM6 3.9375L10.8 1.125H1.2L6 3.9375ZM1.2 2.39062V1.56094V1.575V1.56825V2.39062Z" fill="#868180"/>
</svg>
