<svg width="15" height="14" viewBox="0 0 15 14" fill="none" xmlns="http://www.w3.org/2000/svg">
<path d="M2.09961 9.59961V7.59961C2.09961 7.33439 2.20497 7.08004 2.3925 6.8925C2.58004 6.70497 2.83439 6.59961 3.09961 6.59961H11.0996C11.3648 6.59961 11.6192 6.70497 11.8067 6.8925C11.9943 7.08004 12.0996 7.33439 12.0996 7.59961V9.59961M7.09961 3.59961V9.59961M5.59961 1.59961V2.59961C5.59961 2.86483 5.70497 3.11918 5.8925 3.30672C6.08004 3.49425 6.33439 3.59961 6.59961 3.59961H7.59961C7.86483 3.59961 8.11918 3.49425 8.30672 3.30672C8.49425 3.11918 8.59961 2.86483 8.59961 2.59961V1.59961C8.59961 1.33439 8.49425 1.08004 8.30672 0.892503C8.11918 0.704966 7.86483 0.599609 7.59961 0.599609H6.59961C6.33439 0.599609 6.08004 0.704966 5.8925 0.892503C5.70497 1.08004 5.59961 1.33439 5.59961 1.59961ZM5.59961 10.5996V11.5996C5.59961 11.8648 5.70497 12.1192 5.8925 12.3067C6.08004 12.4943 6.33439 12.5996 6.59961 12.5996H7.59961C7.86483 12.5996 8.11918 12.4943 8.30672 12.3067C8.49425 12.1192 8.59961 11.8648 8.59961 11.5996V10.5996C8.59961 10.3344 8.49425 10.08 8.30672 9.8925C8.11918 9.70497 7.86483 9.59961 7.59961 9.59961H6.59961C6.33439 9.59961 6.08004 9.70497 5.8925 9.8925C5.70497 10.08 5.59961 10.3344 5.59961 10.5996ZM0.599609 10.5996V11.5996C0.599609 11.8648 0.704966 12.1192 0.892503 12.3067C1.08004 12.4943 1.33439 12.5996 1.59961 12.5996H2.59961C2.86483 12.5996 3.11918 12.4943 3.30672 12.3067C3.49425 12.1192 3.59961 11.8648 3.59961 11.5996V10.5996C3.59961 10.3344 3.49425 10.08 3.30672 9.8925C3.11918 9.70497 2.86483 9.59961 2.59961 9.59961H1.59961C1.33439 9.59961 1.08004 9.70497 0.892503 9.8925C0.704966 10.08 0.599609 10.3344 0.599609 10.5996ZM10.5996 10.5996V11.5996C10.5996 11.8648 10.705 12.1192 10.8925 12.3067C11.08 12.4943 11.3344 12.5996 11.5996 12.5996H12.5996C12.8648 12.5996 13.1192 12.4943 13.3067 12.3067C13.4943 12.1192 13.5996 11.8648 13.5996 11.5996V10.5996C13.5996 10.3344 13.4943 10.08 13.3067 9.8925C13.1192 9.70497 12.8648 9.59961 12.5996 9.59961H11.5996C11.3344 9.59961 11.08 9.70497 10.8925 9.8925C10.705 10.08 10.5996 10.3344 10.5996 10.5996Z" stroke="#868180" stroke-width="1.2" stroke-linecap="round" stroke-linejoin="round"/>
</svg>
