<svg width="14" height="12" viewBox="0 0 14 12" fill="none" xmlns="http://www.w3.org/2000/svg">
<path d="M6.7002 6.7502C7.27885 6.7502 7.8338 6.51841 8.24297 6.10583C8.65214 5.69325 8.88201 5.13367 8.88201 4.5502C8.88201 3.96672 8.65214 3.40714 8.24297 2.99456C7.8338 2.58198 7.27885 2.3502 6.7002 2.3502C6.12154 2.3502 5.56659 2.58198 5.15742 2.99456C4.74825 3.40714 4.51838 3.96672 4.51838 4.5502C4.51838 5.13367 4.74825 5.69325 5.15742 6.10583C5.56659 6.51841 6.12154 6.7502 6.7002 6.7502ZM6.7002 6.7502C5.83221 6.7502 4.99978 7.09787 4.38603 7.71674C3.77227 8.33561 3.42747 9.17498 3.42747 10.0502V11.7002M6.7002 6.7502C7.56818 6.7502 8.40061 7.09787 9.01436 7.71674C9.62812 8.33561 9.97292 9.17498 9.97292 10.0502V11.7002M7.24565 2.3502C7.46601 1.435 8.34474 0.700195 9.42747 0.700195C10.6122 0.700195 11.5984 1.6847 11.6093 2.9002C11.5984 4.1157 10.6122 5.1002 9.42747 5.1002M9.42747 5.1002H8.88201M9.42747 5.1002C11.2209 5.1002 12.7002 6.5775 12.7002 8.4002V9.5002M6.15474 2.3502C5.93438 1.435 5.05565 0.700195 3.97292 0.700195C2.7882 0.700195 1.80201 1.6847 1.7911 2.9002C1.80201 4.1157 2.7882 5.1002 3.97292 5.1002M3.97292 5.1002H4.51838M3.97292 5.1002C2.17947 5.1002 0.700195 6.5775 0.700195 8.4002V9.5002" stroke="#868180" stroke-width="1.4"/>
</svg>
