<svg width="14" height="14" viewBox="0 0 14 14" fill="none" xmlns="http://www.w3.org/2000/svg">
<path d="M12.6504 3.89151C12.6504 3.60488 12.6131 3.32558 12.5431 3.06095C12.4817 2.82831 12.1951 2.77299 12.0257 2.94296L10.8771 4.09148C10.7676 4.20091 10.6377 4.2877 10.4947 4.34692C10.3517 4.40614 10.1985 4.43662 10.0437 4.43662C9.88896 4.43662 9.73571 4.40614 9.59273 4.34692C9.44974 4.2877 9.31983 4.20091 9.21039 4.09148C9.10096 3.98206 9.01415 3.85216 8.95492 3.7092C8.8957 3.56623 8.86521 3.413 8.86521 3.25826C8.86521 3.10351 8.8957 2.95028 8.95492 2.80732C9.01415 2.66435 9.10096 2.53445 9.21039 2.42503L10.3591 1.27718C10.5291 1.1072 10.4737 0.82057 10.2411 0.759244C9.67065 0.607544 9.06963 0.614523 8.5029 0.779429C7.93617 0.944334 7.42525 1.2609 7.02533 1.69495C6.6254 2.12899 6.35165 2.66402 6.23364 3.24228C6.11563 3.82053 6.15785 4.42002 6.35572 4.97604C6.40306 5.10935 6.37639 5.25867 6.27706 5.35799L0.850391 10.784C0.583724 11.0506 0.583724 11.4832 0.850391 11.7492L1.55172 12.4504C1.81839 12.717 2.24972 12.717 2.51639 12.4504L7.94306 7.02444C8.04306 6.92446 8.19239 6.89779 8.32506 6.94512C8.81399 7.11892 9.33753 7.17276 9.85161 7.10211C10.3657 7.03145 10.8553 6.83837 11.2792 6.5391C11.7031 6.23983 12.0489 5.84314 12.2875 5.3824C12.5261 4.92167 12.6506 4.41036 12.6504 3.89151Z" stroke="#868180" stroke-width="1.3" stroke-linecap="round" stroke-linejoin="round"/>
</svg>
